<?xml version="1.0" encoding="UTF-8" standalone="no"?>
<!DOCTYPE svg PUBLIC "-//W3C//DTD SVG 1.1//EN"
 "http://www.w3.org/Graphics/SVG/1.1/DTD/svg11.dtd">
<!-- Generated by graphviz version 2.47.0 (20210316.0004)
 -->
<!-- Title: dependencies Pages: 1 -->
<svg width="4568pt" height="284pt"
 viewBox="0.00 0.00 4568.00 284.00" xmlns="http://www.w3.org/2000/svg" xmlns:xlink="http://www.w3.org/1999/xlink">
<g id="graph0" class="graph" transform="scale(1 1) rotate(0) translate(4 280)">
<title>dependencies</title>
<polygon fill="white" stroke="transparent" points="-4,4 -4,-280 4564,-280 4564,4 -4,4"/>
<text text-anchor="start" x="2259.01" y="-42.4" font-family="Times-12" font-weight="bold" font-size="14.00">Legend</text>
<polygon fill="#ffffb3" stroke="transparent" points="2046,-10 2046,-30 2066,-30 2066,-10 2046,-10"/>
<text text-anchor="start" x="2069.63" y="-15.4" font-family="Times-12" font-size="14.00"> &#160;Declarations</text>
<polygon fill="#8dd3c7" stroke="transparent" points="2159,-10 2159,-30 2179,-30 2179,-10 2159,-10"/>
<text text-anchor="start" x="2182.73" y="-15.4" font-family="Times-12" font-size="14.00"> &#160;Module</text>
<polygon fill="#80b1d3" stroke="transparent" points="2245,-10 2245,-30 2265,-30 2265,-10 2245,-10"/>
<text text-anchor="start" x="2268.78" y="-15.4" font-family="Times-12" font-size="14.00"> &#160;Bootstrap</text>
<polygon fill="#fdb462" stroke="transparent" points="2342,-10 2342,-30 2362,-30 2362,-10 2342,-10"/>
<text text-anchor="start" x="2365.67" y="-15.4" font-family="Times-12" font-size="14.00"> &#160;Providers</text>
<polygon fill="#fb8072" stroke="transparent" points="2438,-10 2438,-30 2458,-30 2458,-10 2438,-10"/>
<text text-anchor="start" x="2461.73" y="-15.4" font-family="Times-12" font-size="14.00"> &#160;Exports</text>
<g id="clust1" class="cluster">
<title>cluster_AdminModule</title>
<polygon fill="none" stroke="black" stroke-dasharray="1,5" points="8,-70 8,-195 805,-195 805,-70 8,-70"/>
</g>
<g id="clust2" class="cluster">
<title>cluster_AdminModule_declarations</title>
<polygon fill="none" stroke="black" points="184,-78 184,-130 797,-130 797,-78 184,-78"/>
</g>
<g id="clust7" class="cluster">
<title>cluster_AdminModule_imports</title>
<polygon fill="none" stroke="black" points="16,-78 16,-130 176,-130 176,-78 16,-78"/>
</g>
<g id="clust17" class="cluster">
<title>cluster_AppModule</title>
<polygon fill="none" stroke="black" stroke-dasharray="1,5" points="813,-70 813,-268 1389,-268 1389,-70 813,-70"/>
</g>
<g id="clust18" class="cluster">
<title>cluster_AppModule_declarations</title>
<polygon fill="none" stroke="black" points="1131,-78 1131,-130 1381,-130 1381,-78 1131,-78"/>
</g>
<g id="clust21" class="cluster">
<title>cluster_AppModule_imports</title>
<polygon fill="none" stroke="black" points="979,-78 979,-130 1123,-130 1123,-78 979,-78"/>
</g>
<g id="clust23" class="cluster">
<title>cluster_AppModule_bootstrap</title>
<polygon fill="none" stroke="black" points="1060,-208 1060,-260 1184,-260 1184,-208 1060,-208"/>
</g>
<g id="clust24" class="cluster">
<title>cluster_AppModule_providers</title>
<polygon fill="none" stroke="black" points="821,-78 821,-130 971,-130 971,-78 821,-78"/>
</g>
<g id="clust31" class="cluster">
<title>cluster_AuthModule</title>
<polygon fill="none" stroke="black" stroke-dasharray="1,5" points="1397,-70 1397,-195 1985,-195 1985,-70 1397,-70"/>
</g>
<g id="clust32" class="cluster">
<title>cluster_AuthModule_declarations</title>
<polygon fill="none" stroke="black" points="1561,-78 1561,-130 1977,-130 1977,-78 1561,-78"/>
</g>
<g id="clust36" class="cluster">
<title>cluster_AuthModule_imports</title>
<polygon fill="none" stroke="black" points="1405,-78 1405,-130 1553,-130 1553,-78 1405,-78"/>
</g>
<g id="clust46" class="cluster">
<title>cluster_ProductModule</title>
<polygon fill="none" stroke="black" stroke-dasharray="1,5" points="1993,-70 1993,-195 2865,-195 2865,-70 1993,-70"/>
</g>
<g id="clust47" class="cluster">
<title>cluster_ProductModule_declarations</title>
<polygon fill="none" stroke="black" points="2173,-78 2173,-130 2857,-130 2857,-78 2173,-78"/>
</g>
<g id="clust52" class="cluster">
<title>cluster_ProductModule_imports</title>
<polygon fill="none" stroke="black" points="2001,-78 2001,-130 2165,-130 2165,-78 2001,-78"/>
</g>
<g id="clust62" class="cluster">
<title>cluster_PublicModule</title>
<polygon fill="none" stroke="black" stroke-dasharray="1,5" points="2873,-70 2873,-195 3755,-195 3755,-70 2873,-70"/>
</g>
<g id="clust63" class="cluster">
<title>cluster_PublicModule_declarations</title>
<polygon fill="none" stroke="black" points="3045,-78 3045,-130 3747,-130 3747,-78 3045,-78"/>
</g>
<g id="clust69" class="cluster">
<title>cluster_PublicModule_imports</title>
<polygon fill="none" stroke="black" points="2881,-78 2881,-130 3037,-130 3037,-78 2881,-78"/>
</g>
<g id="clust79" class="cluster">
<title>cluster_UserModule</title>
<polygon fill="none" stroke="black" stroke-dasharray="1,5" points="3763,-70 3763,-195 4552,-195 4552,-70 3763,-70"/>
</g>
<g id="clust80" class="cluster">
<title>cluster_UserModule_declarations</title>
<polygon fill="none" stroke="black" points="3927,-78 3927,-130 4544,-130 4544,-78 3927,-78"/>
</g>
<g id="clust85" class="cluster">
<title>cluster_UserModule_imports</title>
<polygon fill="none" stroke="black" points="3771,-78 3771,-130 3919,-130 3919,-78 3771,-78"/>
</g>
<!-- AHeaderComponent -->
<g id="node1" class="node">
<title>AHeaderComponent</title>
<polygon fill="#ffffb3" stroke="black" points="788.85,-122 657.15,-122 657.15,-86 788.85,-86 788.85,-122"/>
<text text-anchor="middle" x="723" y="-99.8" font-family="Times,serif" font-size="14.00">AHeaderComponent</text>
</g>
<!-- AdminModule -->
<g id="node5" class="node">
<title>AdminModule</title>
<polygon fill="#8dd3c7" stroke="black" points="468.44,-187 465.44,-191 444.44,-191 441.44,-187 369.56,-187 369.56,-151 468.44,-151 468.44,-187"/>
<text text-anchor="middle" x="419" y="-164.8" font-family="Times,serif" font-size="14.00">AdminModule</text>
</g>
<!-- AHeaderComponent&#45;&gt;AdminModule -->
<g id="edge1" class="edge">
<title>AHeaderComponent&#45;&gt;AdminModule</title>
<path fill="none" stroke="black" d="M723,-122.29C723,-144.21 723,-178 723,-178 723,-178 478.52,-178 478.52,-178"/>
<polygon fill="black" stroke="black" points="478.52,-174.5 468.52,-178 478.52,-181.5 478.52,-174.5"/>
</g>
<!-- ALayoutComponent -->
<g id="node2" class="node">
<title>ALayoutComponent</title>
<polygon fill="#ffffb3" stroke="black" points="639.6,-122 508.4,-122 508.4,-86 639.6,-86 639.6,-122"/>
<text text-anchor="middle" x="574" y="-99.8" font-family="Times,serif" font-size="14.00">ALayoutComponent</text>
</g>
<!-- ALayoutComponent&#45;&gt;AdminModule -->
<g id="edge2" class="edge">
<title>ALayoutComponent&#45;&gt;AdminModule</title>
<path fill="none" stroke="black" d="M574,-122.11C574,-141.34 574,-169 574,-169 574,-169 478.47,-169 478.47,-169"/>
<polygon fill="black" stroke="black" points="478.47,-165.5 468.47,-169 478.47,-172.5 478.47,-165.5"/>
</g>
<!-- DashboardComponent -->
<g id="node3" class="node">
<title>DashboardComponent</title>
<polygon fill="#ffffb3" stroke="black" points="489.97,-122 348.03,-122 348.03,-86 489.97,-86 489.97,-122"/>
<text text-anchor="middle" x="419" y="-99.8" font-family="Times,serif" font-size="14.00">DashboardComponent</text>
</g>
<!-- DashboardComponent&#45;&gt;AdminModule -->
<g id="edge3" class="edge">
<title>DashboardComponent&#45;&gt;AdminModule</title>
<path fill="none" stroke="black" d="M419,-122.11C419,-122.11 419,-140.99 419,-140.99"/>
<polygon fill="black" stroke="black" points="415.5,-140.99 419,-150.99 422.5,-140.99 415.5,-140.99"/>
</g>
<!-- SideMenuComponent -->
<g id="node4" class="node">
<title>SideMenuComponent</title>
<polygon fill="#ffffb3" stroke="black" points="330.38,-122 191.62,-122 191.62,-86 330.38,-86 330.38,-122"/>
<text text-anchor="middle" x="261" y="-99.8" font-family="Times,serif" font-size="14.00">SideMenuComponent</text>
</g>
<!-- SideMenuComponent&#45;&gt;AdminModule -->
<g id="edge4" class="edge">
<title>SideMenuComponent&#45;&gt;AdminModule</title>
<path fill="none" stroke="black" d="M261,-122.02C261,-139.37 261,-163 261,-163 261,-163 359.44,-163 359.44,-163"/>
<polygon fill="black" stroke="black" points="359.44,-166.5 369.44,-163 359.44,-159.5 359.44,-166.5"/>
</g>
<!-- AdminRoutingModule -->
<g id="node6" class="node">
<title>AdminRoutingModule</title>
<polygon fill="#8dd3c7" stroke="black" points="167.56,-122 164.56,-126 143.56,-126 140.56,-122 24.44,-122 24.44,-86 167.56,-86 167.56,-122"/>
<text text-anchor="middle" x="96" y="-99.8" font-family="Times,serif" font-size="14.00">AdminRoutingModule</text>
</g>
<!-- AdminRoutingModule&#45;&gt;AdminModule -->
<g id="edge5" class="edge">
<title>AdminRoutingModule&#45;&gt;AdminModule</title>
<path fill="none" stroke="black" d="M96,-122.28C96,-143.32 96,-175 96,-175 96,-175 359.59,-175 359.59,-175"/>
<polygon fill="black" stroke="black" points="359.59,-178.5 369.59,-175 359.59,-171.5 359.59,-178.5"/>
</g>
<!-- AppComponent -->
<g id="node7" class="node">
<title>AppComponent</title>
<polygon fill="#ffffb3" stroke="black" points="1372.94,-122 1267.06,-122 1267.06,-86 1372.94,-86 1372.94,-122"/>
<text text-anchor="middle" x="1320" y="-99.8" font-family="Times,serif" font-size="14.00">AppComponent</text>
</g>
<!-- AppModule -->
<g id="node9" class="node">
<title>AppModule</title>
<polygon fill="#8dd3c7" stroke="black" points="1163.66,-187 1160.66,-191 1139.66,-191 1136.66,-187 1080.34,-187 1080.34,-151 1163.66,-151 1163.66,-187"/>
<text text-anchor="middle" x="1122" y="-164.8" font-family="Times,serif" font-size="14.00">AppModule</text>
</g>
<!-- AppComponent&#45;&gt;AppModule -->
<g id="edge6" class="edge">
<title>AppComponent&#45;&gt;AppModule</title>
<path fill="none" stroke="black" d="M1320,-122.28C1320,-143.32 1320,-175 1320,-175 1320,-175 1173.99,-175 1173.99,-175"/>
<polygon fill="black" stroke="black" points="1173.99,-171.5 1163.99,-175 1173.99,-178.5 1173.99,-171.5"/>
</g>
<!-- ErrorComponent -->
<g id="node8" class="node">
<title>ErrorComponent</title>
<polygon fill="#ffffb3" stroke="black" points="1249.37,-122 1138.63,-122 1138.63,-86 1249.37,-86 1249.37,-122"/>
<text text-anchor="middle" x="1194" y="-99.8" font-family="Times,serif" font-size="14.00">ErrorComponent</text>
</g>
<!-- ErrorComponent&#45;&gt;AppModule -->
<g id="edge7" class="edge">
<title>ErrorComponent&#45;&gt;AppModule</title>
<path fill="none" stroke="black" d="M1151.2,-122.11C1151.2,-122.11 1151.2,-140.99 1151.2,-140.99"/>
<polygon fill="black" stroke="black" points="1147.7,-140.99 1151.2,-150.99 1154.7,-140.99 1147.7,-140.99"/>
</g>
<!-- AppComponent  -->
<g id="node11" class="node">
<title>AppComponent </title>
<polygon fill="#80b1d3" stroke="black" points="1176.44,-252 1067.56,-252 1067.56,-216 1176.44,-216 1176.44,-252"/>
<text text-anchor="middle" x="1122" y="-229.8" font-family="Times,serif" font-size="14.00">AppComponent </text>
</g>
<!-- AppModule&#45;&gt;AppComponent  -->
<g id="edge9" class="edge">
<title>AppModule&#45;&gt;AppComponent </title>
<path fill="none" stroke="black" stroke-dasharray="1,5" d="M1122,-187.11C1122,-187.11 1122,-205.99 1122,-205.99"/>
<polygon fill="black" stroke="black" points="1118.5,-205.99 1122,-215.99 1125.5,-205.99 1118.5,-205.99"/>
</g>
<!-- AppRoutingModule -->
<g id="node10" class="node">
<title>AppRoutingModule</title>
<polygon fill="#8dd3c7" stroke="black" points="1115.27,-122 1112.27,-126 1091.27,-126 1088.27,-122 986.73,-122 986.73,-86 1115.27,-86 1115.27,-122"/>
<text text-anchor="middle" x="1051" y="-99.8" font-family="Times,serif" font-size="14.00">AppRoutingModule</text>
</g>
<!-- AppRoutingModule&#45;&gt;AppModule -->
<g id="edge8" class="edge">
<title>AppRoutingModule&#45;&gt;AppModule</title>
<path fill="none" stroke="black" d="M1097.78,-122.11C1097.78,-122.11 1097.78,-140.99 1097.78,-140.99"/>
<polygon fill="black" stroke="black" points="1094.28,-140.99 1097.78,-150.99 1101.28,-140.99 1094.28,-140.99"/>
</g>
<!-- JwtInterceptor -->
<g id="node12" class="node">
<title>JwtInterceptor</title>
<ellipse fill="#fdb462" stroke="black" cx="896" cy="-104" rx="66.61" ry="18"/>
<text text-anchor="middle" x="896" y="-99.8" font-family="Times,serif" font-size="14.00">JwtInterceptor</text>
</g>
<!-- JwtInterceptor&#45;&gt;AppModule -->
<g id="edge10" class="edge">
<title>JwtInterceptor&#45;&gt;AppModule</title>
<path fill="none" stroke="black" d="M896,-122.03C896,-138.4 896,-160 896,-160 896,-160 1070.28,-160 1070.28,-160"/>
<polygon fill="black" stroke="black" points="1070.28,-163.5 1080.28,-160 1070.28,-156.5 1070.28,-163.5"/>
</g>
<!-- LoginComponent -->
<g id="node13" class="node">
<title>LoginComponent</title>
<polygon fill="#ffffb3" stroke="black" points="1969.28,-122 1854.72,-122 1854.72,-86 1969.28,-86 1969.28,-122"/>
<text text-anchor="middle" x="1912" y="-99.8" font-family="Times,serif" font-size="14.00">LoginComponent</text>
</g>
<!-- AuthModule -->
<g id="node16" class="node">
<title>AuthModule</title>
<polygon fill="#8dd3c7" stroke="black" points="1747.55,-187 1744.55,-191 1723.55,-191 1720.55,-187 1660.45,-187 1660.45,-151 1747.55,-151 1747.55,-187"/>
<text text-anchor="middle" x="1704" y="-164.8" font-family="Times,serif" font-size="14.00">AuthModule</text>
</g>
<!-- LoginComponent&#45;&gt;AuthModule -->
<g id="edge11" class="edge">
<title>LoginComponent&#45;&gt;AuthModule</title>
<path fill="none" stroke="black" d="M1912,-122.03C1912,-138.4 1912,-160 1912,-160 1912,-160 1757.6,-160 1757.6,-160"/>
<polygon fill="black" stroke="black" points="1757.6,-156.5 1747.6,-160 1757.6,-163.5 1757.6,-156.5"/>
</g>
<!-- LogoutComponent -->
<g id="node14" class="node">
<title>LogoutComponent</title>
<polygon fill="#ffffb3" stroke="black" points="1836.78,-122 1715.22,-122 1715.22,-86 1836.78,-86 1836.78,-122"/>
<text text-anchor="middle" x="1776" y="-99.8" font-family="Times,serif" font-size="14.00">LogoutComponent</text>
</g>
<!-- LogoutComponent&#45;&gt;AuthModule -->
<g id="edge12" class="edge">
<title>LogoutComponent&#45;&gt;AuthModule</title>
<path fill="none" stroke="black" d="M1731.44,-122.11C1731.44,-122.11 1731.44,-140.99 1731.44,-140.99"/>
<polygon fill="black" stroke="black" points="1727.94,-140.99 1731.44,-150.99 1734.94,-140.99 1727.94,-140.99"/>
</g>
<!-- RegisterComponent -->
<g id="node15" class="node">
<title>RegisterComponent</title>
<polygon fill="#ffffb3" stroke="black" points="1696.98,-122 1569.02,-122 1569.02,-86 1696.98,-86 1696.98,-122"/>
<text text-anchor="middle" x="1633" y="-99.8" font-family="Times,serif" font-size="14.00">RegisterComponent</text>
</g>
<!-- RegisterComponent&#45;&gt;AuthModule -->
<g id="edge13" class="edge">
<title>RegisterComponent&#45;&gt;AuthModule</title>
<path fill="none" stroke="black" d="M1678.61,-122.11C1678.61,-122.11 1678.61,-140.99 1678.61,-140.99"/>
<polygon fill="black" stroke="black" points="1675.11,-140.99 1678.61,-150.99 1682.11,-140.99 1675.11,-140.99"/>
</g>
<!-- AuthRoutingModule -->
<g id="node17" class="node">
<title>AuthRoutingModule</title>
<polygon fill="#8dd3c7" stroke="black" points="1545.17,-122 1542.17,-126 1521.17,-126 1518.17,-122 1412.83,-122 1412.83,-86 1545.17,-86 1545.17,-122"/>
<text text-anchor="middle" x="1479" y="-99.8" font-family="Times,serif" font-size="14.00">AuthRoutingModule</text>
</g>
<!-- AuthRoutingModule&#45;&gt;AuthModule -->
<g id="edge14" class="edge">
<title>AuthRoutingModule&#45;&gt;AuthModule</title>
<path fill="none" stroke="black" d="M1479,-122.02C1479,-139.37 1479,-163 1479,-163 1479,-163 1650.35,-163 1650.35,-163"/>
<polygon fill="black" stroke="black" points="1650.35,-166.5 1660.35,-163 1650.35,-159.5 1650.35,-166.5"/>
</g>
<!-- ProductAddComponent -->
<g id="node18" class="node">
<title>ProductAddComponent</title>
<polygon fill="#ffffb3" stroke="black" points="2849.49,-122 2700.51,-122 2700.51,-86 2849.49,-86 2849.49,-122"/>
<text text-anchor="middle" x="2775" y="-99.8" font-family="Times,serif" font-size="14.00">ProductAddComponent</text>
</g>
<!-- ProductModule -->
<g id="node22" class="node">
<title>ProductModule</title>
<polygon fill="#8dd3c7" stroke="black" points="2480.6,-187 2477.6,-191 2456.6,-191 2453.6,-187 2377.4,-187 2377.4,-151 2480.6,-151 2480.6,-187"/>
<text text-anchor="middle" x="2429" y="-164.8" font-family="Times,serif" font-size="14.00">ProductModule</text>
</g>
<!-- ProductAddComponent&#45;&gt;ProductModule -->
<g id="edge15" class="edge">
<title>ProductAddComponent&#45;&gt;ProductModule</title>
<path fill="none" stroke="black" d="M2775,-122.01C2775,-144.49 2775,-180 2775,-180 2775,-180 2490.8,-180 2490.8,-180"/>
<polygon fill="black" stroke="black" points="2490.8,-176.5 2480.8,-180 2490.8,-183.5 2490.8,-176.5"/>
</g>
<!-- ProductDeleteComponent -->
<g id="node19" class="node">
<title>ProductDeleteComponent</title>
<polygon fill="#ffffb3" stroke="black" points="2682.91,-122 2521.09,-122 2521.09,-86 2682.91,-86 2682.91,-122"/>
<text text-anchor="middle" x="2602" y="-99.8" font-family="Times,serif" font-size="14.00">ProductDeleteComponent</text>
</g>
<!-- ProductDeleteComponent&#45;&gt;ProductModule -->
<g id="edge16" class="edge">
<title>ProductDeleteComponent&#45;&gt;ProductModule</title>
<path fill="none" stroke="black" d="M2602,-122.13C2602,-142.57 2602,-173 2602,-173 2602,-173 2490.91,-173 2490.91,-173"/>
<polygon fill="black" stroke="black" points="2490.91,-169.5 2480.91,-173 2490.91,-176.5 2490.91,-169.5"/>
</g>
<!-- ProductEditComponent -->
<g id="node20" class="node">
<title>ProductEditComponent</title>
<polygon fill="#ffffb3" stroke="black" points="2503.21,-122 2354.79,-122 2354.79,-86 2503.21,-86 2503.21,-122"/>
<text text-anchor="middle" x="2429" y="-99.8" font-family="Times,serif" font-size="14.00">ProductEditComponent</text>
</g>
<!-- ProductEditComponent&#45;&gt;ProductModule -->
<g id="edge17" class="edge">
<title>ProductEditComponent&#45;&gt;ProductModule</title>
<path fill="none" stroke="black" d="M2429,-122.11C2429,-122.11 2429,-140.99 2429,-140.99"/>
<polygon fill="black" stroke="black" points="2425.5,-140.99 2429,-150.99 2432.5,-140.99 2425.5,-140.99"/>
</g>
<!-- ProductIndexComponent -->
<g id="node21" class="node">
<title>ProductIndexComponent</title>
<polygon fill="#ffffb3" stroke="black" points="2337.26,-122 2180.74,-122 2180.74,-86 2337.26,-86 2337.26,-122"/>
<text text-anchor="middle" x="2259" y="-99.8" font-family="Times,serif" font-size="14.00">ProductIndexComponent</text>
</g>
<!-- ProductIndexComponent&#45;&gt;ProductModule -->
<g id="edge18" class="edge">
<title>ProductIndexComponent&#45;&gt;ProductModule</title>
<path fill="none" stroke="black" d="M2259,-122.11C2259,-141.34 2259,-169 2259,-169 2259,-169 2367.07,-169 2367.07,-169"/>
<polygon fill="black" stroke="black" points="2367.07,-172.5 2377.07,-169 2367.07,-165.5 2367.07,-172.5"/>
</g>
<!-- ProductRoutingModule -->
<g id="node23" class="node">
<title>ProductRoutingModule</title>
<polygon fill="#8dd3c7" stroke="black" points="2157.22,-122 2154.22,-126 2133.22,-126 2130.22,-122 2008.78,-122 2008.78,-86 2157.22,-86 2157.22,-122"/>
<text text-anchor="middle" x="2083" y="-99.8" font-family="Times,serif" font-size="14.00">ProductRoutingModule</text>
</g>
<!-- ProductRoutingModule&#45;&gt;ProductModule -->
<g id="edge19" class="edge">
<title>ProductRoutingModule&#45;&gt;ProductModule</title>
<path fill="none" stroke="black" d="M2083,-122.29C2083,-144.21 2083,-178 2083,-178 2083,-178 2367.2,-178 2367.2,-178"/>
<polygon fill="black" stroke="black" points="2367.2,-181.5 2377.2,-178 2367.2,-174.5 2367.2,-181.5"/>
</g>
<!-- CartComponent -->
<g id="node24" class="node">
<title>CartComponent</title>
<polygon fill="#ffffb3" stroke="black" points="3738.94,-122 3633.06,-122 3633.06,-86 3738.94,-86 3738.94,-122"/>
<text text-anchor="middle" x="3686" y="-99.8" font-family="Times,serif" font-size="14.00">CartComponent</text>
</g>
<!-- PublicModule -->
<g id="node29" class="node">
<title>PublicModule</title>
<polygon fill="#8dd3c7" stroke="black" points="3381.83,-187 3378.83,-191 3357.83,-191 3354.83,-187 3286.17,-187 3286.17,-151 3381.83,-151 3381.83,-187"/>
<text text-anchor="middle" x="3334" y="-164.8" font-family="Times,serif" font-size="14.00">PublicModule</text>
</g>
<!-- CartComponent&#45;&gt;PublicModule -->
<g id="edge20" class="edge">
<title>CartComponent&#45;&gt;PublicModule</title>
<path fill="none" stroke="black" d="M3686,-122.27C3686,-140.56 3686,-166 3686,-166 3686,-166 3391.84,-166 3391.84,-166"/>
<polygon fill="black" stroke="black" points="3391.84,-162.5 3381.84,-166 3391.84,-169.5 3391.84,-162.5"/>
</g>
<!-- CheckoutComponent -->
<g id="node25" class="node">
<title>CheckoutComponent</title>
<polygon fill="#ffffb3" stroke="black" points="3615.49,-122 3480.51,-122 3480.51,-86 3615.49,-86 3615.49,-122"/>
<text text-anchor="middle" x="3548" y="-99.8" font-family="Times,serif" font-size="14.00">CheckoutComponent</text>
</g>
<!-- CheckoutComponent&#45;&gt;PublicModule -->
<g id="edge21" class="edge">
<title>CheckoutComponent&#45;&gt;PublicModule</title>
<path fill="none" stroke="black" d="M3548,-122.01C3548,-138.05 3548,-159 3548,-159 3548,-159 3391.76,-159 3391.76,-159"/>
<polygon fill="black" stroke="black" points="3391.76,-155.5 3381.76,-159 3391.76,-162.5 3391.76,-155.5"/>
</g>
<!-- HomeComponent -->
<g id="node26" class="node">
<title>HomeComponent</title>
<polygon fill="#ffffb3" stroke="black" points="3462.55,-122 3347.45,-122 3347.45,-86 3462.55,-86 3462.55,-122"/>
<text text-anchor="middle" x="3405" y="-99.8" font-family="Times,serif" font-size="14.00">HomeComponent</text>
</g>
<!-- HomeComponent&#45;&gt;PublicModule -->
<g id="edge22" class="edge">
<title>HomeComponent&#45;&gt;PublicModule</title>
<path fill="none" stroke="black" d="M3364.45,-122.11C3364.45,-122.11 3364.45,-140.99 3364.45,-140.99"/>
<polygon fill="black" stroke="black" points="3360.95,-140.99 3364.45,-150.99 3367.95,-140.99 3360.95,-140.99"/>
</g>
<!-- PHeaderComponent -->
<g id="node27" class="node">
<title>PHeaderComponent</title>
<polygon fill="#ffffb3" stroke="black" points="3328.53,-122 3199.47,-122 3199.47,-86 3328.53,-86 3328.53,-122"/>
<text text-anchor="middle" x="3264" y="-99.8" font-family="Times,serif" font-size="14.00">PHeaderComponent</text>
</g>
<!-- PHeaderComponent&#45;&gt;PublicModule -->
<g id="edge23" class="edge">
<title>PHeaderComponent&#45;&gt;PublicModule</title>
<path fill="none" stroke="black" d="M3307.55,-122.11C3307.55,-122.11 3307.55,-140.99 3307.55,-140.99"/>
<polygon fill="black" stroke="black" points="3304.05,-140.99 3307.55,-150.99 3311.05,-140.99 3304.05,-140.99"/>
</g>
<!-- PLayoutComponent -->
<g id="node28" class="node">
<title>PLayoutComponent</title>
<polygon fill="#ffffb3" stroke="black" points="3181.27,-122 3052.73,-122 3052.73,-86 3181.27,-86 3181.27,-122"/>
<text text-anchor="middle" x="3117" y="-99.8" font-family="Times,serif" font-size="14.00">PLayoutComponent</text>
</g>
<!-- PLayoutComponent&#45;&gt;PublicModule -->
<g id="edge24" class="edge">
<title>PLayoutComponent&#45;&gt;PublicModule</title>
<path fill="none" stroke="black" d="M3117,-122.01C3117,-138.05 3117,-159 3117,-159 3117,-159 3276.11,-159 3276.11,-159"/>
<polygon fill="black" stroke="black" points="3276.11,-162.5 3286.11,-159 3276.11,-155.5 3276.11,-162.5"/>
</g>
<!-- PublicRoutingModule -->
<g id="node30" class="node">
<title>PublicRoutingModule</title>
<polygon fill="#8dd3c7" stroke="black" points="3029.45,-122 3026.45,-126 3005.45,-126 3002.45,-122 2888.55,-122 2888.55,-86 3029.45,-86 3029.45,-122"/>
<text text-anchor="middle" x="2959" y="-99.8" font-family="Times,serif" font-size="14.00">PublicRoutingModule</text>
</g>
<!-- PublicRoutingModule&#45;&gt;PublicModule -->
<g id="edge25" class="edge">
<title>PublicRoutingModule&#45;&gt;PublicModule</title>
<path fill="none" stroke="black" d="M2959,-122.27C2959,-140.56 2959,-166 2959,-166 2959,-166 3276.13,-166 3276.13,-166"/>
<polygon fill="black" stroke="black" points="3276.13,-169.5 3286.13,-166 3276.13,-162.5 3276.13,-169.5"/>
</g>
<!-- UserAddComponent -->
<g id="node31" class="node">
<title>UserAddComponent</title>
<polygon fill="#ffffb3" stroke="black" points="4535.87,-122 4404.13,-122 4404.13,-86 4535.87,-86 4535.87,-122"/>
<text text-anchor="middle" x="4470" y="-99.8" font-family="Times,serif" font-size="14.00">UserAddComponent</text>
</g>
<!-- UserModule -->
<g id="node35" class="node">
<title>UserModule</title>
<polygon fill="#8dd3c7" stroke="black" points="4200.98,-187 4197.98,-191 4176.98,-191 4173.98,-187 4115.02,-187 4115.02,-151 4200.98,-151 4200.98,-187"/>
<text text-anchor="middle" x="4158" y="-164.8" font-family="Times,serif" font-size="14.00">UserModule</text>
</g>
<!-- UserAddComponent&#45;&gt;UserModule -->
<g id="edge26" class="edge">
<title>UserAddComponent&#45;&gt;UserModule</title>
<path fill="none" stroke="black" d="M4470,-122.28C4470,-143.32 4470,-175 4470,-175 4470,-175 4211.05,-175 4211.05,-175"/>
<polygon fill="black" stroke="black" points="4211.05,-171.5 4201.05,-175 4211.05,-178.5 4211.05,-171.5"/>
</g>
<!-- UserDeleteComponent -->
<g id="node32" class="node">
<title>UserDeleteComponent</title>
<polygon fill="#ffffb3" stroke="black" points="4386.29,-122 4241.71,-122 4241.71,-86 4386.29,-86 4386.29,-122"/>
<text text-anchor="middle" x="4314" y="-99.8" font-family="Times,serif" font-size="14.00">UserDeleteComponent</text>
</g>
<!-- UserDeleteComponent&#45;&gt;UserModule -->
<g id="edge27" class="edge">
<title>UserDeleteComponent&#45;&gt;UserModule</title>
<path fill="none" stroke="black" d="M4314,-122.02C4314,-139.37 4314,-163 4314,-163 4314,-163 4211.04,-163 4211.04,-163"/>
<polygon fill="black" stroke="black" points="4211.04,-159.5 4201.04,-163 4211.04,-166.5 4211.04,-159.5"/>
</g>
<!-- UserEditComponent -->
<g id="node33" class="node">
<title>UserEditComponent</title>
<polygon fill="#ffffb3" stroke="black" points="4223.59,-122 4092.41,-122 4092.41,-86 4223.59,-86 4223.59,-122"/>
<text text-anchor="middle" x="4158" y="-99.8" font-family="Times,serif" font-size="14.00">UserEditComponent</text>
</g>
<!-- UserEditComponent&#45;&gt;UserModule -->
<g id="edge28" class="edge">
<title>UserEditComponent&#45;&gt;UserModule</title>
<path fill="none" stroke="black" d="M4158,-122.11C4158,-122.11 4158,-140.99 4158,-140.99"/>
<polygon fill="black" stroke="black" points="4154.5,-140.99 4158,-150.99 4161.5,-140.99 4154.5,-140.99"/>
</g>
<!-- UserIndexComponent -->
<g id="node34" class="node">
<title>UserIndexComponent</title>
<polygon fill="#ffffb3" stroke="black" points="4074.63,-122 3935.37,-122 3935.37,-86 4074.63,-86 4074.63,-122"/>
<text text-anchor="middle" x="4005" y="-99.8" font-family="Times,serif" font-size="14.00">UserIndexComponent</text>
</g>
<!-- UserIndexComponent&#45;&gt;UserModule -->
<g id="edge29" class="edge">
<title>UserIndexComponent&#45;&gt;UserModule</title>
<path fill="none" stroke="black" d="M4005,-122.13C4005,-142.57 4005,-173 4005,-173 4005,-173 4104.97,-173 4104.97,-173"/>
<polygon fill="black" stroke="black" points="4104.97,-176.5 4114.97,-173 4104.97,-169.5 4104.97,-176.5"/>
</g>
<!-- UserRoutingModule -->
<g id="node36" class="node">
<title>UserRoutingModule</title>
<polygon fill="#8dd3c7" stroke="black" points="3910.59,-122 3907.59,-126 3886.59,-126 3883.59,-122 3779.41,-122 3779.41,-86 3910.59,-86 3910.59,-122"/>
<text text-anchor="middle" x="3845" y="-99.8" font-family="Times,serif" font-size="14.00">UserRoutingModule</text>
</g>
<!-- UserRoutingModule&#45;&gt;UserModule -->
<g id="edge30" class="edge">
<title>UserRoutingModule&#45;&gt;UserModule</title>
<path fill="none" stroke="black" d="M3845,-122.01C3845,-144.49 3845,-180 3845,-180 3845,-180 4104.81,-180 4104.81,-180"/>
<polygon fill="black" stroke="black" points="4104.81,-183.5 4114.81,-180 4104.81,-176.5 4104.81,-183.5"/>
</g>
</g>
</svg>
