<?xml version="1.0" encoding="UTF-8" standalone="no"?>
<!DOCTYPE svg PUBLIC "-//W3C//DTD SVG 1.1//EN"
 "http://www.w3.org/Graphics/SVG/1.1/DTD/svg11.dtd">
<!-- Generated by graphviz version 2.47.0 (20210316.0004)
 -->
<!-- Title: dependencies Pages: 1 -->
<svg width="906pt" height="211pt"
 viewBox="0.00 0.00 906.00 211.00" xmlns="http://www.w3.org/2000/svg" xmlns:xlink="http://www.w3.org/1999/xlink">
<g id="graph0" class="graph" transform="scale(1 1) rotate(0) translate(4 207)">
<title>dependencies</title>
<polygon fill="white" stroke="transparent" points="-4,4 -4,-207 902,-207 902,4 -4,4"/>
<text text-anchor="start" x="428.01" y="-42.4" font-family="Times-12" font-weight="bold" font-size="14.00">Legend</text>
<polygon fill="#ffffb3" stroke="transparent" points="215,-10 215,-30 235,-30 235,-10 215,-10"/>
<text text-anchor="start" x="238.63" y="-15.4" font-family="Times-12" font-size="14.00"> &#160;Declarations</text>
<polygon fill="#8dd3c7" stroke="transparent" points="328,-10 328,-30 348,-30 348,-10 328,-10"/>
<text text-anchor="start" x="351.73" y="-15.4" font-family="Times-12" font-size="14.00"> &#160;Module</text>
<polygon fill="#80b1d3" stroke="transparent" points="414,-10 414,-30 434,-30 434,-10 414,-10"/>
<text text-anchor="start" x="437.78" y="-15.4" font-family="Times-12" font-size="14.00"> &#160;Bootstrap</text>
<polygon fill="#fdb462" stroke="transparent" points="511,-10 511,-30 531,-30 531,-10 511,-10"/>
<text text-anchor="start" x="534.67" y="-15.4" font-family="Times-12" font-size="14.00"> &#160;Providers</text>
<polygon fill="#fb8072" stroke="transparent" points="607,-10 607,-30 627,-30 627,-10 607,-10"/>
<text text-anchor="start" x="630.73" y="-15.4" font-family="Times-12" font-size="14.00"> &#160;Exports</text>
<g id="clust1" class="cluster">
<title>cluster_PublicModule</title>
<polygon fill="none" stroke="black" stroke-dasharray="1,5" points="8,-70 8,-195 890,-195 890,-70 8,-70"/>
</g>
<g id="clust8" class="cluster">
<title>cluster_PublicModule_imports</title>
<polygon fill="none" stroke="black" points="726,-78 726,-130 882,-130 882,-78 726,-78"/>
</g>
<g id="clust2" class="cluster">
<title>cluster_PublicModule_declarations</title>
<polygon fill="none" stroke="black" points="16,-78 16,-130 718,-130 718,-78 16,-78"/>
</g>
<!-- CartComponent -->
<g id="node1" class="node">
<title>CartComponent</title>
<polygon fill="#ffffb3" stroke="black" points="709.94,-122 604.06,-122 604.06,-86 709.94,-86 709.94,-122"/>
<text text-anchor="middle" x="657" y="-99.8" font-family="Times,serif" font-size="14.00">CartComponent</text>
</g>
<!-- PublicModule -->
<g id="node6" class="node">
<title>PublicModule</title>
<polygon fill="#8dd3c7" stroke="black" points="494.83,-187 491.83,-191 470.83,-191 467.83,-187 399.17,-187 399.17,-151 494.83,-151 494.83,-187"/>
<text text-anchor="middle" x="447" y="-164.8" font-family="Times,serif" font-size="14.00">PublicModule</text>
</g>
<!-- CartComponent&#45;&gt;PublicModule -->
<g id="edge1" class="edge">
<title>CartComponent&#45;&gt;PublicModule</title>
<path fill="none" stroke="black" d="M657,-122.02C657,-139.37 657,-163 657,-163 657,-163 504.92,-163 504.92,-163"/>
<polygon fill="black" stroke="black" points="504.92,-159.5 494.92,-163 504.91,-166.5 504.92,-159.5"/>
</g>
<!-- CheckoutComponent -->
<g id="node2" class="node">
<title>CheckoutComponent</title>
<polygon fill="#ffffb3" stroke="black" points="586.49,-122 451.51,-122 451.51,-86 586.49,-86 586.49,-122"/>
<text text-anchor="middle" x="519" y="-99.8" font-family="Times,serif" font-size="14.00">CheckoutComponent</text>
</g>
<!-- CheckoutComponent&#45;&gt;PublicModule -->
<g id="edge2" class="edge">
<title>CheckoutComponent&#45;&gt;PublicModule</title>
<path fill="none" stroke="black" d="M473.08,-122.11C473.08,-122.11 473.08,-140.99 473.08,-140.99"/>
<polygon fill="black" stroke="black" points="469.58,-140.99 473.08,-150.99 476.58,-140.99 469.58,-140.99"/>
</g>
<!-- HomeComponent -->
<g id="node3" class="node">
<title>HomeComponent</title>
<polygon fill="#ffffb3" stroke="black" points="433.55,-122 318.45,-122 318.45,-86 433.55,-86 433.55,-122"/>
<text text-anchor="middle" x="376" y="-99.8" font-family="Times,serif" font-size="14.00">HomeComponent</text>
</g>
<!-- HomeComponent&#45;&gt;PublicModule -->
<g id="edge3" class="edge">
<title>HomeComponent&#45;&gt;PublicModule</title>
<path fill="none" stroke="black" d="M416.55,-122.11C416.55,-122.11 416.55,-140.99 416.55,-140.99"/>
<polygon fill="black" stroke="black" points="413.05,-140.99 416.55,-150.99 420.05,-140.99 413.05,-140.99"/>
</g>
<!-- PHeaderComponent -->
<g id="node4" class="node">
<title>PHeaderComponent</title>
<polygon fill="#ffffb3" stroke="black" points="299.53,-122 170.47,-122 170.47,-86 299.53,-86 299.53,-122"/>
<text text-anchor="middle" x="235" y="-99.8" font-family="Times,serif" font-size="14.00">PHeaderComponent</text>
</g>
<!-- PHeaderComponent&#45;&gt;PublicModule -->
<g id="edge4" class="edge">
<title>PHeaderComponent&#45;&gt;PublicModule</title>
<path fill="none" stroke="black" d="M235,-122.02C235,-139.37 235,-163 235,-163 235,-163 389.16,-163 389.16,-163"/>
<polygon fill="black" stroke="black" points="389.16,-166.5 399.16,-163 389.16,-159.5 389.16,-166.5"/>
</g>
<!-- PLayoutComponent -->
<g id="node5" class="node">
<title>PLayoutComponent</title>
<polygon fill="#ffffb3" stroke="black" points="152.27,-122 23.73,-122 23.73,-86 152.27,-86 152.27,-122"/>
<text text-anchor="middle" x="88" y="-99.8" font-family="Times,serif" font-size="14.00">PLayoutComponent</text>
</g>
<!-- PLayoutComponent&#45;&gt;PublicModule -->
<g id="edge5" class="edge">
<title>PLayoutComponent&#45;&gt;PublicModule</title>
<path fill="none" stroke="black" d="M88,-122.28C88,-143.32 88,-175 88,-175 88,-175 389.33,-175 389.33,-175"/>
<polygon fill="black" stroke="black" points="389.33,-178.5 399.33,-175 389.33,-171.5 389.33,-178.5"/>
</g>
<!-- PublicRoutingModule -->
<g id="node7" class="node">
<title>PublicRoutingModule</title>
<polygon fill="#8dd3c7" stroke="black" points="874.45,-122 871.45,-126 850.45,-126 847.45,-122 733.55,-122 733.55,-86 874.45,-86 874.45,-122"/>
<text text-anchor="middle" x="804" y="-99.8" font-family="Times,serif" font-size="14.00">PublicRoutingModule</text>
</g>
<!-- PublicRoutingModule&#45;&gt;PublicModule -->
<g id="edge6" class="edge">
<title>PublicRoutingModule&#45;&gt;PublicModule</title>
<path fill="none" stroke="black" d="M804,-122.28C804,-143.32 804,-175 804,-175 804,-175 504.78,-175 504.78,-175"/>
<polygon fill="black" stroke="black" points="504.78,-171.5 494.78,-175 504.78,-178.5 504.78,-171.5"/>
</g>
</g>
</svg>
