<?xml version="1.0" encoding="UTF-8" standalone="no"?>
<!DOCTYPE svg PUBLIC "-//W3C//DTD SVG 1.1//EN"
 "http://www.w3.org/Graphics/SVG/1.1/DTD/svg11.dtd">
<!-- Generated by graphviz version 2.47.0 (20210316.0004)
 -->
<!-- Title: dependencies Pages: 1 -->
<svg width="906pt" height="211pt"
 viewBox="0.00 0.00 906.00 211.00" xmlns="http://www.w3.org/2000/svg" xmlns:xlink="http://www.w3.org/1999/xlink">
<g id="graph0" class="graph" transform="scale(1 1) rotate(0) translate(4 207)">
<title>dependencies</title>
<polygon fill="white" stroke="transparent" points="-4,4 -4,-207 902,-207 902,4 -4,4"/>
<text text-anchor="start" x="428.01" y="-42.4" font-family="Times-12" font-weight="bold" font-size="14.00">Legend</text>
<polygon fill="#ffffb3" stroke="transparent" points="215,-10 215,-30 235,-30 235,-10 215,-10"/>
<text text-anchor="start" x="238.63" y="-15.4" font-family="Times-12" font-size="14.00"> &#160;Declarations</text>
<polygon fill="#8dd3c7" stroke="transparent" points="328,-10 328,-30 348,-30 348,-10 328,-10"/>
<text text-anchor="start" x="351.73" y="-15.4" font-family="Times-12" font-size="14.00"> &#160;Module</text>
<polygon fill="#80b1d3" stroke="transparent" points="414,-10 414,-30 434,-30 434,-10 414,-10"/>
<text text-anchor="start" x="437.78" y="-15.4" font-family="Times-12" font-size="14.00"> &#160;Bootstrap</text>
<polygon fill="#fdb462" stroke="transparent" points="511,-10 511,-30 531,-30 531,-10 511,-10"/>
<text text-anchor="start" x="534.67" y="-15.4" font-family="Times-12" font-size="14.00"> &#160;Providers</text>
<polygon fill="#fb8072" stroke="transparent" points="607,-10 607,-30 627,-30 627,-10 607,-10"/>
<text text-anchor="start" x="630.73" y="-15.4" font-family="Times-12" font-size="14.00"> &#160;Exports</text>
<g id="clust1" class="cluster">
<title>cluster_PublicModule</title>
<polygon fill="none" stroke="black" stroke-dasharray="1,5" points="8,-70 8,-195 890,-195 890,-70 8,-70"/>
</g>
<g id="clust2" class="cluster">
<title>cluster_PublicModule_declarations</title>
<polygon fill="none" stroke="black" points="180,-78 180,-130 882,-130 882,-78 180,-78"/>
</g>
<g id="clust8" class="cluster">
<title>cluster_PublicModule_imports</title>
<polygon fill="none" stroke="black" points="16,-78 16,-130 172,-130 172,-78 16,-78"/>
</g>
<!-- CartComponent -->
<g id="node1" class="node">
<title>CartComponent</title>
<polygon fill="#ffffb3" stroke="black" points="873.94,-122 768.06,-122 768.06,-86 873.94,-86 873.94,-122"/>
<text text-anchor="middle" x="821" y="-99.8" font-family="Times,serif" font-size="14.00">CartComponent</text>
</g>
<!-- PublicModule -->
<g id="node6" class="node">
<title>PublicModule</title>
<polygon fill="#8dd3c7" stroke="black" points="516.83,-187 513.83,-191 492.83,-191 489.83,-187 421.17,-187 421.17,-151 516.83,-151 516.83,-187"/>
<text text-anchor="middle" x="469" y="-164.8" font-family="Times,serif" font-size="14.00">PublicModule</text>
</g>
<!-- CartComponent&#45;&gt;PublicModule -->
<g id="edge1" class="edge">
<title>CartComponent&#45;&gt;PublicModule</title>
<path fill="none" stroke="black" d="M821,-122.28C821,-143.32 821,-175 821,-175 821,-175 526.84,-175 526.84,-175"/>
<polygon fill="black" stroke="black" points="526.84,-171.5 516.84,-175 526.84,-178.5 526.84,-171.5"/>
</g>
<!-- CheckoutComponent -->
<g id="node2" class="node">
<title>CheckoutComponent</title>
<polygon fill="#ffffb3" stroke="black" points="750.49,-122 615.51,-122 615.51,-86 750.49,-86 750.49,-122"/>
<text text-anchor="middle" x="683" y="-99.8" font-family="Times,serif" font-size="14.00">CheckoutComponent</text>
</g>
<!-- CheckoutComponent&#45;&gt;PublicModule -->
<g id="edge2" class="edge">
<title>CheckoutComponent&#45;&gt;PublicModule</title>
<path fill="none" stroke="black" d="M683,-122.02C683,-139.37 683,-163 683,-163 683,-163 526.76,-163 526.76,-163"/>
<polygon fill="black" stroke="black" points="526.76,-159.5 516.76,-163 526.76,-166.5 526.76,-159.5"/>
</g>
<!-- HomeComponent -->
<g id="node3" class="node">
<title>HomeComponent</title>
<polygon fill="#ffffb3" stroke="black" points="597.55,-122 482.45,-122 482.45,-86 597.55,-86 597.55,-122"/>
<text text-anchor="middle" x="540" y="-99.8" font-family="Times,serif" font-size="14.00">HomeComponent</text>
</g>
<!-- HomeComponent&#45;&gt;PublicModule -->
<g id="edge3" class="edge">
<title>HomeComponent&#45;&gt;PublicModule</title>
<path fill="none" stroke="black" d="M499.45,-122.11C499.45,-122.11 499.45,-140.99 499.45,-140.99"/>
<polygon fill="black" stroke="black" points="495.95,-140.99 499.45,-150.99 502.95,-140.99 495.95,-140.99"/>
</g>
<!-- PHeaderComponent -->
<g id="node4" class="node">
<title>PHeaderComponent</title>
<polygon fill="#ffffb3" stroke="black" points="463.53,-122 334.47,-122 334.47,-86 463.53,-86 463.53,-122"/>
<text text-anchor="middle" x="399" y="-99.8" font-family="Times,serif" font-size="14.00">PHeaderComponent</text>
</g>
<!-- PHeaderComponent&#45;&gt;PublicModule -->
<g id="edge4" class="edge">
<title>PHeaderComponent&#45;&gt;PublicModule</title>
<path fill="none" stroke="black" d="M442.55,-122.11C442.55,-122.11 442.55,-140.99 442.55,-140.99"/>
<polygon fill="black" stroke="black" points="439.05,-140.99 442.55,-150.99 446.05,-140.99 439.05,-140.99"/>
</g>
<!-- PLayoutComponent -->
<g id="node5" class="node">
<title>PLayoutComponent</title>
<polygon fill="#ffffb3" stroke="black" points="316.27,-122 187.73,-122 187.73,-86 316.27,-86 316.27,-122"/>
<text text-anchor="middle" x="252" y="-99.8" font-family="Times,serif" font-size="14.00">PLayoutComponent</text>
</g>
<!-- PLayoutComponent&#45;&gt;PublicModule -->
<g id="edge5" class="edge">
<title>PLayoutComponent&#45;&gt;PublicModule</title>
<path fill="none" stroke="black" d="M252,-122.02C252,-139.37 252,-163 252,-163 252,-163 411.11,-163 411.11,-163"/>
<polygon fill="black" stroke="black" points="411.11,-166.5 421.11,-163 411.11,-159.5 411.11,-166.5"/>
</g>
<!-- PublicRoutingModule -->
<g id="node7" class="node">
<title>PublicRoutingModule</title>
<polygon fill="#8dd3c7" stroke="black" points="164.45,-122 161.45,-126 140.45,-126 137.45,-122 23.55,-122 23.55,-86 164.45,-86 164.45,-122"/>
<text text-anchor="middle" x="94" y="-99.8" font-family="Times,serif" font-size="14.00">PublicRoutingModule</text>
</g>
<!-- PublicRoutingModule&#45;&gt;PublicModule -->
<g id="edge6" class="edge">
<title>PublicRoutingModule&#45;&gt;PublicModule</title>
<path fill="none" stroke="black" d="M94,-122.28C94,-143.32 94,-175 94,-175 94,-175 411.13,-175 411.13,-175"/>
<polygon fill="black" stroke="black" points="411.13,-178.5 421.13,-175 411.13,-171.5 411.13,-178.5"/>
</g>
</g>
</svg>
