<?xml version="1.0" encoding="UTF-8" standalone="no"?>
<!DOCTYPE svg PUBLIC "-//W3C//DTD SVG 1.1//EN"
 "http://www.w3.org/Graphics/SVG/1.1/DTD/svg11.dtd">
<!-- Generated by graphviz version 2.47.0 (20210316.0004)
 -->
<!-- Title: dependencies Pages: 1 -->
<svg width="896pt" height="211pt"
 viewBox="0.00 0.00 896.00 211.00" xmlns="http://www.w3.org/2000/svg" xmlns:xlink="http://www.w3.org/1999/xlink">
<g id="graph0" class="graph" transform="scale(1 1) rotate(0) translate(4 207)">
<title>dependencies</title>
<polygon fill="white" stroke="transparent" points="-4,4 -4,-207 892,-207 892,4 -4,4"/>
<text text-anchor="start" x="423.01" y="-42.4" font-family="Times-12" font-weight="bold" font-size="14.00">Legend</text>
<polygon fill="#ffffb3" stroke="transparent" points="210,-10 210,-30 230,-30 230,-10 210,-10"/>
<text text-anchor="start" x="233.63" y="-15.4" font-family="Times-12" font-size="14.00"> &#160;Declarations</text>
<polygon fill="#8dd3c7" stroke="transparent" points="323,-10 323,-30 343,-30 343,-10 323,-10"/>
<text text-anchor="start" x="346.73" y="-15.4" font-family="Times-12" font-size="14.00"> &#160;Module</text>
<polygon fill="#80b1d3" stroke="transparent" points="409,-10 409,-30 429,-30 429,-10 409,-10"/>
<text text-anchor="start" x="432.78" y="-15.4" font-family="Times-12" font-size="14.00"> &#160;Bootstrap</text>
<polygon fill="#fdb462" stroke="transparent" points="506,-10 506,-30 526,-30 526,-10 506,-10"/>
<text text-anchor="start" x="529.67" y="-15.4" font-family="Times-12" font-size="14.00"> &#160;Providers</text>
<polygon fill="#fb8072" stroke="transparent" points="602,-10 602,-30 622,-30 622,-10 602,-10"/>
<text text-anchor="start" x="625.73" y="-15.4" font-family="Times-12" font-size="14.00"> &#160;Exports</text>
<g id="clust1" class="cluster">
<title>cluster_ProductModule</title>
<polygon fill="none" stroke="black" stroke-dasharray="1,5" points="8,-70 8,-195 880,-195 880,-70 8,-70"/>
</g>
<g id="clust7" class="cluster">
<title>cluster_ProductModule_imports</title>
<polygon fill="none" stroke="black" points="708,-78 708,-130 872,-130 872,-78 708,-78"/>
</g>
<g id="clust2" class="cluster">
<title>cluster_ProductModule_declarations</title>
<polygon fill="none" stroke="black" points="16,-78 16,-130 700,-130 700,-78 16,-78"/>
</g>
<!-- ProductAddComponent -->
<g id="node1" class="node">
<title>ProductAddComponent</title>
<polygon fill="#ffffb3" stroke="black" points="692.49,-122 543.51,-122 543.51,-86 692.49,-86 692.49,-122"/>
<text text-anchor="middle" x="618" y="-99.8" font-family="Times,serif" font-size="14.00">ProductAddComponent</text>
</g>
<!-- ProductModule -->
<g id="node5" class="node">
<title>ProductModule</title>
<polygon fill="#8dd3c7" stroke="black" points="496.6,-187 493.6,-191 472.6,-191 469.6,-187 393.4,-187 393.4,-151 496.6,-151 496.6,-187"/>
<text text-anchor="middle" x="445" y="-164.8" font-family="Times,serif" font-size="14.00">ProductModule</text>
</g>
<!-- ProductAddComponent&#45;&gt;ProductModule -->
<g id="edge1" class="edge">
<title>ProductAddComponent&#45;&gt;ProductModule</title>
<path fill="none" stroke="black" d="M618,-122.02C618,-139.37 618,-163 618,-163 618,-163 506.91,-163 506.91,-163"/>
<polygon fill="black" stroke="black" points="506.91,-159.5 496.91,-163 506.91,-166.5 506.91,-159.5"/>
</g>
<!-- ProductDeleteComponent -->
<g id="node2" class="node">
<title>ProductDeleteComponent</title>
<polygon fill="#ffffb3" stroke="black" points="525.91,-122 364.09,-122 364.09,-86 525.91,-86 525.91,-122"/>
<text text-anchor="middle" x="445" y="-99.8" font-family="Times,serif" font-size="14.00">ProductDeleteComponent</text>
</g>
<!-- ProductDeleteComponent&#45;&gt;ProductModule -->
<g id="edge2" class="edge">
<title>ProductDeleteComponent&#45;&gt;ProductModule</title>
<path fill="none" stroke="black" d="M445,-122.11C445,-122.11 445,-140.99 445,-140.99"/>
<polygon fill="black" stroke="black" points="441.5,-140.99 445,-150.99 448.5,-140.99 441.5,-140.99"/>
</g>
<!-- ProductEditComponent -->
<g id="node3" class="node">
<title>ProductEditComponent</title>
<polygon fill="#ffffb3" stroke="black" points="346.21,-122 197.79,-122 197.79,-86 346.21,-86 346.21,-122"/>
<text text-anchor="middle" x="272" y="-99.8" font-family="Times,serif" font-size="14.00">ProductEditComponent</text>
</g>
<!-- ProductEditComponent&#45;&gt;ProductModule -->
<g id="edge3" class="edge">
<title>ProductEditComponent&#45;&gt;ProductModule</title>
<path fill="none" stroke="black" d="M272,-122.02C272,-139.37 272,-163 272,-163 272,-163 383.09,-163 383.09,-163"/>
<polygon fill="black" stroke="black" points="383.09,-166.5 393.09,-163 383.09,-159.5 383.09,-166.5"/>
</g>
<!-- ProductIndexComponent -->
<g id="node4" class="node">
<title>ProductIndexComponent</title>
<polygon fill="#ffffb3" stroke="black" points="180.26,-122 23.74,-122 23.74,-86 180.26,-86 180.26,-122"/>
<text text-anchor="middle" x="102" y="-99.8" font-family="Times,serif" font-size="14.00">ProductIndexComponent</text>
</g>
<!-- ProductIndexComponent&#45;&gt;ProductModule -->
<g id="edge4" class="edge">
<title>ProductIndexComponent&#45;&gt;ProductModule</title>
<path fill="none" stroke="black" d="M102,-122.28C102,-143.32 102,-175 102,-175 102,-175 383.28,-175 383.28,-175"/>
<polygon fill="black" stroke="black" points="383.28,-178.5 393.28,-175 383.28,-171.5 383.28,-178.5"/>
</g>
<!-- ProductRoutingModule -->
<g id="node6" class="node">
<title>ProductRoutingModule</title>
<polygon fill="#8dd3c7" stroke="black" points="864.22,-122 861.22,-126 840.22,-126 837.22,-122 715.78,-122 715.78,-86 864.22,-86 864.22,-122"/>
<text text-anchor="middle" x="790" y="-99.8" font-family="Times,serif" font-size="14.00">ProductRoutingModule</text>
</g>
<!-- ProductRoutingModule&#45;&gt;ProductModule -->
<g id="edge5" class="edge">
<title>ProductRoutingModule&#45;&gt;ProductModule</title>
<path fill="none" stroke="black" d="M790,-122.28C790,-143.32 790,-175 790,-175 790,-175 506.65,-175 506.65,-175"/>
<polygon fill="black" stroke="black" points="506.65,-171.5 496.65,-175 506.65,-178.5 506.65,-171.5"/>
</g>
</g>
</svg>
