<?xml version="1.0" encoding="UTF-8" standalone="no"?>
<!DOCTYPE svg PUBLIC "-//W3C//DTD SVG 1.1//EN"
 "http://www.w3.org/Graphics/SVG/1.1/DTD/svg11.dtd">
<!-- Generated by graphviz version 2.47.0 (20210316.0004)
 -->
<!-- Title: dependencies Pages: 1 -->
<svg width="821pt" height="211pt"
 viewBox="0.00 0.00 821.00 211.00" xmlns="http://www.w3.org/2000/svg" xmlns:xlink="http://www.w3.org/1999/xlink">
<g id="graph0" class="graph" transform="scale(1 1) rotate(0) translate(4 207)">
<title>dependencies</title>
<polygon fill="white" stroke="transparent" points="-4,4 -4,-207 817,-207 817,4 -4,4"/>
<text text-anchor="start" x="385.51" y="-42.4" font-family="Times-12" font-weight="bold" font-size="14.00">Legend</text>
<polygon fill="#ffffb3" stroke="transparent" points="172.5,-10 172.5,-30 192.5,-30 192.5,-10 172.5,-10"/>
<text text-anchor="start" x="196.13" y="-15.4" font-family="Times-12" font-size="14.00"> &#160;Declarations</text>
<polygon fill="#8dd3c7" stroke="transparent" points="285.5,-10 285.5,-30 305.5,-30 305.5,-10 285.5,-10"/>
<text text-anchor="start" x="309.23" y="-15.4" font-family="Times-12" font-size="14.00"> &#160;Module</text>
<polygon fill="#80b1d3" stroke="transparent" points="371.5,-10 371.5,-30 391.5,-30 391.5,-10 371.5,-10"/>
<text text-anchor="start" x="395.28" y="-15.4" font-family="Times-12" font-size="14.00"> &#160;Bootstrap</text>
<polygon fill="#fdb462" stroke="transparent" points="468.5,-10 468.5,-30 488.5,-30 488.5,-10 468.5,-10"/>
<text text-anchor="start" x="492.17" y="-15.4" font-family="Times-12" font-size="14.00"> &#160;Providers</text>
<polygon fill="#fb8072" stroke="transparent" points="564.5,-10 564.5,-30 584.5,-30 584.5,-10 564.5,-10"/>
<text text-anchor="start" x="588.23" y="-15.4" font-family="Times-12" font-size="14.00"> &#160;Exports</text>
<g id="clust1" class="cluster">
<title>cluster_AdminModule</title>
<polygon fill="none" stroke="black" stroke-dasharray="1,5" points="8,-70 8,-195 805,-195 805,-70 8,-70"/>
</g>
<g id="clust7" class="cluster">
<title>cluster_AdminModule_imports</title>
<polygon fill="none" stroke="black" points="637,-78 637,-130 797,-130 797,-78 637,-78"/>
</g>
<g id="clust2" class="cluster">
<title>cluster_AdminModule_declarations</title>
<polygon fill="none" stroke="black" points="16,-78 16,-130 629,-130 629,-78 16,-78"/>
</g>
<!-- AHeaderComponent -->
<g id="node1" class="node">
<title>AHeaderComponent</title>
<polygon fill="#ffffb3" stroke="black" points="620.85,-122 489.15,-122 489.15,-86 620.85,-86 620.85,-122"/>
<text text-anchor="middle" x="555" y="-99.8" font-family="Times,serif" font-size="14.00">AHeaderComponent</text>
</g>
<!-- AdminModule -->
<g id="node5" class="node">
<title>AdminModule</title>
<polygon fill="#8dd3c7" stroke="black" points="455.44,-187 452.44,-191 431.44,-191 428.44,-187 356.56,-187 356.56,-151 455.44,-151 455.44,-187"/>
<text text-anchor="middle" x="406" y="-164.8" font-family="Times,serif" font-size="14.00">AdminModule</text>
</g>
<!-- AHeaderComponent&#45;&gt;AdminModule -->
<g id="edge1" class="edge">
<title>AHeaderComponent&#45;&gt;AdminModule</title>
<path fill="none" stroke="black" d="M555,-122.02C555,-139.37 555,-163 555,-163 555,-163 465.61,-163 465.61,-163"/>
<polygon fill="black" stroke="black" points="465.61,-159.5 455.61,-163 465.61,-166.5 465.61,-159.5"/>
</g>
<!-- ALayoutComponent -->
<g id="node2" class="node">
<title>ALayoutComponent</title>
<polygon fill="#ffffb3" stroke="black" points="471.6,-122 340.4,-122 340.4,-86 471.6,-86 471.6,-122"/>
<text text-anchor="middle" x="406" y="-99.8" font-family="Times,serif" font-size="14.00">ALayoutComponent</text>
</g>
<!-- ALayoutComponent&#45;&gt;AdminModule -->
<g id="edge2" class="edge">
<title>ALayoutComponent&#45;&gt;AdminModule</title>
<path fill="none" stroke="black" d="M406,-122.11C406,-122.11 406,-140.99 406,-140.99"/>
<polygon fill="black" stroke="black" points="402.5,-140.99 406,-150.99 409.5,-140.99 402.5,-140.99"/>
</g>
<!-- DashboardComponent -->
<g id="node3" class="node">
<title>DashboardComponent</title>
<polygon fill="#ffffb3" stroke="black" points="321.97,-122 180.03,-122 180.03,-86 321.97,-86 321.97,-122"/>
<text text-anchor="middle" x="251" y="-99.8" font-family="Times,serif" font-size="14.00">DashboardComponent</text>
</g>
<!-- DashboardComponent&#45;&gt;AdminModule -->
<g id="edge3" class="edge">
<title>DashboardComponent&#45;&gt;AdminModule</title>
<path fill="none" stroke="black" d="M251,-122.02C251,-139.37 251,-163 251,-163 251,-163 346.53,-163 346.53,-163"/>
<polygon fill="black" stroke="black" points="346.53,-166.5 356.53,-163 346.53,-159.5 346.53,-166.5"/>
</g>
<!-- SideMenuComponent -->
<g id="node4" class="node">
<title>SideMenuComponent</title>
<polygon fill="#ffffb3" stroke="black" points="162.38,-122 23.62,-122 23.62,-86 162.38,-86 162.38,-122"/>
<text text-anchor="middle" x="93" y="-99.8" font-family="Times,serif" font-size="14.00">SideMenuComponent</text>
</g>
<!-- SideMenuComponent&#45;&gt;AdminModule -->
<g id="edge4" class="edge">
<title>SideMenuComponent&#45;&gt;AdminModule</title>
<path fill="none" stroke="black" d="M93,-122.28C93,-143.32 93,-175 93,-175 93,-175 346.75,-175 346.75,-175"/>
<polygon fill="black" stroke="black" points="346.75,-178.5 356.75,-175 346.75,-171.5 346.75,-178.5"/>
</g>
<!-- AdminRoutingModule -->
<g id="node6" class="node">
<title>AdminRoutingModule</title>
<polygon fill="#8dd3c7" stroke="black" points="788.56,-122 785.56,-126 764.56,-126 761.56,-122 645.44,-122 645.44,-86 788.56,-86 788.56,-122"/>
<text text-anchor="middle" x="717" y="-99.8" font-family="Times,serif" font-size="14.00">AdminRoutingModule</text>
</g>
<!-- AdminRoutingModule&#45;&gt;AdminModule -->
<g id="edge5" class="edge">
<title>AdminRoutingModule&#45;&gt;AdminModule</title>
<path fill="none" stroke="black" d="M717,-122.28C717,-143.32 717,-175 717,-175 717,-175 465.28,-175 465.28,-175"/>
<polygon fill="black" stroke="black" points="465.28,-171.5 455.28,-175 465.28,-178.5 465.28,-171.5"/>
</g>
</g>
</svg>
